<?xml version="1.0" encoding="UTF-8"?><svg id="Layer_2" xmlns="http://www.w3.org/2000/svg" width="200" height="200" viewBox="0 0 50 50"><defs><style>.cls-1{fill:#4a7aff;opacity:.2;}.cls-1,.cls-2,.cls-3{stroke-width:0px;}.cls-2{fill:#ff6935;opacity:.4;}.cls-3{fill:#00264a;}</style></defs><path class="cls-3" d="m2.5,42.33s5.5-.6,5.5-.6c5.42-.73,10.77.31,16.56.08-1.18-8.95-.75-19.41.81-28.66,3.47-.38,6.85-1.34,10.33-1.72.1-.63.11-1.7.07-2.5.03-.79-.06-1.87.11-2.51-3.33-.36-6.64-.9-9.95-1.37-1.66-.24-3.32-.44-4.98-.61-.34-.05-.76.37-1.08.53-.38.23-.49.45-.95.8,0,0-1.94,1.59-1.94,1.59.87.92,2.12,2.84,2.87,3.9,2.48-.02,4.89.63,7.33.88.13.74,0,1.66-.03,2.46-1.54.13-3.28,0-4.87.35,0,.99-.25,2.79-.2,4.07,0,0-.07-.08-.07-.08l14.49,1.27c1.13-1.02,3.15-1.99,4.6-2.93,0,0-.02.13-.02.13-1.03-1.4-2.3-2.62-3.57-3.81-.03-.05-.06-.02-.17,0-3.82.72-8.31,1.9-11.69,2.91-.76,9.22-1.53,18.56-.04,27.74,6.82,1.3,14.75,1.5,21.92,2.06-7.34-.55-14.89-.4-22.07-2.03-1.49-9.2-.86-18.68.07-27.86,3.46-1.18,7.1-2.04,10.69-2.76.42-.08.82-.16,1.22-.26.06-.02.17.04.19.07,1.28,1.19,2.55,2.42,3.59,3.83.03.04.02.1-.02.13-1.59.97-3.23,1.85-4.71,2.95-4.83-.38-9.65-.9-14.48-1.29-.04,0-.07-.04-.07-.08.08-1.38-.01-2.89.33-4.21,1.59-.28,3.22-.33,4.83-.28l-.07.06c.08-.79.05-1.59.09-2.39,0,0,.06.07.06.07-2.46-.28-4.9-.88-7.36-.92-.93-1.36-2.02-2.72-2.89-4.07,0,0,1.94-1.59,1.94-1.59.47-.38.93-.87,1.49-1.14.11-.07.31-.17.43-.22,1.72.16,3.44.39,5.15.64,3.31.48,6.62,1.04,9.94,1.38,0,.82-.09,1.72-.05,2.57-.02.84.16,1.77-.13,2.57-3.47.39-6.84,1.36-10.32,1.74-1.48,9.2-1.6,19.36-.82,28.73-5.76.21-11.07-.88-16.55-.19,0-.02-5.53.6-5.5.54h0Z"/><path class="cls-1" d="m14.7,7.12l.27.32c.85-.99,1.73-1.98,2.85-2.63,1.99-1.15,4.43-1.09,6.73-1.16,2.42-.07,4.85-.33,7.26-.1.41.04.83.09,1.18.3.96.55,1.07,1.87,1.05,2.98,0,.54-.01,1.1-.23,1.6-.53,1.23-2.07,1.62-3.4,1.77-1.57.17-3.15.23-4.73.16-.62-.03-1.27-.07-1.84.19-.25.11-.47.28-.73.37-.36.12-.76.08-1.14.03-.97-.12-1.94-.24-2.91-.36-.59-.07-1.19-.15-1.72-.4-1.27-.61-1.88-2.05-2.64-3.07Z"/><path class="cls-2" d="m27.2,16.93c3.83-.84,7.46-2.5,11.32-3.18,1.03-.18,2.17-.27,3.05.29.65.42,1.05,1.14,1.21,1.89s.08,1.54-.07,2.29c-.09.46-.21.92-.49,1.3-.68.95-2.02,1.06-3.19,1.09-3.55.09-7.1.17-10.65.26-.57.01-1.22-.01-1.57-.46-.16-.21-.23-.47-.29-.72-.12-.48-.23-.98-.17-1.48s.29-1.17.84-1.29Z"/></svg>