<?xml version="1.0" encoding="UTF-8"?>
<svg id="Layer_2" data-name="Layer 2" xmlns="http://www.w3.org/2000/svg" viewBox="0 0 500 500">
  <defs>
    <style>
      .cls-1 {
        fill: #ff6935;
        opacity: .7;
      }

      .cls-1, .cls-2, .cls-3 {
        stroke-width: 0px;
      }

      .cls-2 {
        fill: #4a7aff;
        opacity: .5;
      }

      .cls-3 {
        fill: #dfe4f2;
      }
    </style>
  </defs>
  <path class="cls-2" d="m44.32,127.57l4.14,4.92c13.04-15.22,26.66-30.48,44-40.53,30.72-17.81,68.3-16.85,103.8-17.92,37.34-1.13,74.78-5.05,111.98-1.55,6.29.59,12.76,1.46,18.24,4.6,14.85,8.5,16.45,28.9,16.27,46-.09,8.38-.23,17.02-3.57,24.7-8.25,18.99-31.92,24.98-52.5,27.24-24.23,2.67-48.66,3.49-73.01,2.47-9.57-.4-19.58-1.01-28.31,2.94-3.83,1.74-7.28,4.31-11.27,5.65-5.61,1.89-11.71,1.19-17.59.48-14.98-1.83-29.96-3.67-44.95-5.5-9.07-1.11-18.33-2.27-26.58-6.19-19.66-9.34-29.02-31.58-40.66-47.31Z"/>
  <path class="cls-1" d="m237.17,279c59.1-12.96,115.05-38.51,174.63-49,15.9-2.8,33.47-4.2,47.05,4.53,9.98,6.41,16.25,17.58,18.65,29.19,2.4,11.61,1.28,23.69-1.02,35.32-1.39,7.04-3.3,14.18-7.49,20-10.52,14.62-31.21,16.39-49.22,16.82-54.76,1.32-109.53,2.63-164.29,3.95-8.75.21-18.87-.18-24.26-7.08-2.47-3.16-3.48-7.2-4.42-11.11-1.8-7.47-3.61-15.14-2.58-22.75s4.44-18.01,12.95-19.87Z"/>
  <path class="cls-3" d="m-568.34,701.28c187.62-20.82,376.23-32.25,564.94-36.53,62.91-1.43,125.83-2.13,188.76-2.1,0,0-1.3,1.44-1.3,1.44-15.2-147.33-10.69-296.67,13.17-442.83.05-.33.33-.58.65-.62,53.55-5.78,105.7-20.62,159.27-26.49,0,0-.45.39-.45.39,1.54-6.29,1.98-12.84,2.02-19.34-.33-13.06-.77-26.17-.39-39.24.17-6.55.46-13.09,1.17-19.62,0,0,.42.52.42.52-25.68-2.77-51.28-6.18-76.83-9.89-51.08-7.45-102.08-15.62-153.46-20.78,0,0-1.2-.11-1.2-.11,0,0-1.04-.07-1.04-.07-.07,0-.33.12-.48.17,0,0-.54.23-.54.23-4.7,2.25-9.12,5.07-13.47,7.93-2.03,1.41-4.3,2.79-5.95,4.6.05-.11,0-.29-.08-.38-.02.07-.25-.46.18.39,0,.24-.1.37-.11.39-.32.46-.76.79-1.13,1.14-12.37,10.38-25.06,20.34-37.38,30.78,0,0,.1-.89.1-.89,14.63,19.37,32.23,43.12,44.24,61.27,38.17-.3,75.33,9.75,113.06,13.57.49.05.85.48.83.96-.3,6.13-.37,12.26-.44,18.43-.07,6.17-.37,12.35-.88,18.5-.04.52-.49.91-1,.89-24.76-.72-49.64.19-74.02,4.51,0,0,.88-.92.88-.92-3.01,21.13-3.63,42.4-4.04,63.72,0,0-1.07-1.19-1.07-1.19,72.92,6.09,153.34,13.42,222.48,19.88,22.26-17.66,47.91-30.38,71.82-45.44,0,0-.39,2.08-.39,2.08-15.9-21.56-35.48-40.39-55.09-58.66-.33-.31-.37-.32-.4-.34,0-.01-.1-.02-.31,0-1.94.4-4.02,1.16-6.06,1.51-59.77,11.81-119.29,25.53-177.04,45.09,0,0,1.04-1.32,1.04-1.32-5.95,71.3-11.87,142.64-13.43,214.14-1.55,71.43,1.2,143.17,12.73,213.76,0,0-.98-1.04-.98-1.04,23.53,5.29,47.38,9.16,71.34,12.1,134.63,13.76,368.71,27.19,506.06,38.15-54.65-2.54-312.95-21.2-361.76-24.04-48.24-3.37-96.54-6.03-144.59-11.74-24.02-2.89-47.96-6.72-71.61-11.98-.52-.12-.9-.54-.98-1.03-11.7-70.74-14.72-142.65-13.16-214.24,2.43-71.74,5.82-145.1,14.37-215.66,56.52-19.2,114.77-32.76,173.28-44.33,2.76-.58,5.46-.97,8.17-1.81,1.15-.3,2.7-.92,4.1-.33.63.26,1.1.74,1.29.92,19.71,18.42,39.29,37.28,55.39,59.15.5.67.31,1.64-.39,2.08-17.98,11.4-36.84,21.07-54.51,32.87-5.87,3.9-11.59,8.01-17.15,12.33-.28.22-.63.31-.96.29-74.55-5.9-148.89-13.96-223.41-20.04-.62-.05-1.09-.58-1.07-1.19.47-21.33,1.16-42.79,4.24-63.95.06-.48.43-.84.88-.92,24.58-4.29,49.61-5.13,74.45-4.34l-1,.89c.52-6.12.83-12.23.92-18.37.09-6.14.18-12.32.49-18.48,0,0,.83.96.83.96-18.94-1.98-37.63-5.48-56.36-8.48-18.87-3.35-38.22-4.95-57.12-5.71-14.86-20.6-29.17-41.59-44.66-61.69-.21-.28-.17-.67.1-.89,9.91-8.28,19.96-16.39,30-24.5,2.78-2.33,5.79-4.54,8.36-7.02.02-.02-.06.06-.05.25.42.8.13.24.08.28-.18-.21-.2-.56-.08-.81.16-.33.32-.47.47-.64.62-.63,1.26-1.12,1.91-1.62,5.76-4.15,11.77-8.02,18.2-11.04.22-.08.33-.15.65-.23.26-.04.33-.01.44-.01,0,0,.32.02.32.02,0,0,.61.05.61.05,51.8,5.17,103.21,13.51,154.7,21.06,25.54,3.76,51.13,7.14,76.8,9.86.26.03.45.26.42.52-.7,6.48-.98,13.01-1.14,19.54-.22,9.8-.12,19.61.16,29.4.45,9.81.61,19.77-1.74,29.42-53.26,6.82-106.06,20.95-159.68,27.31,0,0,.65-.62.65-.62-23.25,146.09-27.24,295.2-12.03,442.32.08.76-.53,1.45-1.3,1.44-62.91-.04-125.81.52-188.7,1.88-188.52,3.74-377.93,15.52-565,34.14h0Z"/>
</svg>