<?xml version="1.0" encoding="UTF-8"?>
<svg id="Layer_2" data-name="Layer 2" xmlns="http://www.w3.org/2000/svg" width="69.88" height="43">
  <defs>
    <style>
      .cls-1 {
        opacity: .2;
      }

      .cls-1, .cls-2, .cls-3, .cls-4 {
        stroke-width: 0px;
      }

      .cls-1, .cls-3 {
        fill: #4a7aff;
      }

      .cls-2 {
        opacity: .4;
      }

      .cls-2, .cls-4 {
        fill: #ff6935;
      }
    </style>
  </defs>
  <path class="cls-2" d="m38.75,19.01c0,10.72-8.18,23.34-17.3,17.72C10.45,29.95,4.44,22.84,2.04,17.32-1.09,10.1,15.79,1.29,26.51,1.29s12.24,7,12.24,17.72Z"/>
  <path class="cls-1" d="m28.45,24.33c0-10.72,8.18-23.34,17.3-17.72,10.99,6.77,17.01,13.88,19.41,19.41,3.14,7.22-13.75,16.03-24.47,16.03s-12.24-7-12.24-17.72Z"/>
  <path class="cls-4" d="m12.65,8.14h8.15c2.13,0,3.82.54,5.07,1.63,1.26,1.09,1.89,2.64,1.89,4.67s-.63,3.59-1.89,4.68c-1.26,1.1-2.95,1.64-5.07,1.64h-2.91v5.06h-5.24V8.14Zm7.16,8.48c.81,0,1.44-.16,1.9-.48.46-.32.68-.89.68-1.7s-.23-1.35-.68-1.67c-.46-.32-1.09-.48-1.9-.48h-1.92v4.33h1.92Z"/>
  <path class="cls-3" d="m40.81,15.88h5.24v13.29h7.14v4.4h-12.37V15.88Z"/>
</svg>