<?xml version="1.0" encoding="UTF-8"?><svg id="Layer_2" xmlns="http://www.w3.org/2000/svg" width="200" height="200" viewBox="0 0 50 50"><defs><style>.cls-1{fill:#ff6935;opacity:.7;}.cls-1,.cls-2,.cls-3{stroke-width:0px;}.cls-2{fill:#4a7aff;opacity:.5;}.cls-3{fill:#dfe4f2;}</style></defs><path class="cls-3" d="m2.5,42.33s5.49-.6,5.49-.6c5.42-.73,10.77.31,16.56.08-1.22-8.96-.69-19.32.77-28.62,3.43-.47,6.89-1.35,10.37-1.76.24-1.41-.1-3.59.18-5.01-4.99-.54-9.93-1.49-14.93-1.98-.2-.07-.36.12-.55.2-.34.22-.75.4-.99.73,0,0-.48.4-.48.4,0,0-1.94,1.59-1.94,1.59,0,0,0-.07,0-.07.94,1.25,2.1,2.81,2.86,3.97,2.48-.02,4.89.63,7.33.88.13.74,0,1.66-.03,2.46,0,.04-.03.06-.07.06-1.61-.05-3.22.01-4.8.29,0,.99-.25,2.79-.2,4.07,0,0-.07-.08-.07-.08l14.49,1.27c1.13-1.02,3.15-1.99,4.6-2.93,0,0-.02.13-.02.13-1.03-1.4-2.3-2.62-3.57-3.81-3.96.72-8.07,1.7-11.93,3-.57,8.73-1.53,18.62.02,27.67,6.83,1.29,14.7,1.54,21.92,2.04-7.3-.44-14.78-.49-22.01-1.95-.9-4.53-.98-9.31-.92-13.95.1-4.64.49-9.27.87-13.9,2.71-1.09,5.72-1.71,8.59-2.39.81-.17,2.6-.54,3.38-.71.17-.04.28.19.39.26,0,0,.4.38.4.38,1.07,1.01,2.11,2.07,2.99,3.26.03.04.02.09-.02.12-1.59.97-3.23,1.85-4.71,2.95-4.83-.45-9.82-.78-14.56-1.37.07-1.38-.01-2.89.33-4.21,1.59-.28,3.22-.33,4.83-.28l-.07.06c.08-.79.05-1.59.09-2.39l.06.07c-2.45-.25-4.85-.91-7.32-.9-1.02-1.29-1.91-2.72-2.94-4.02-.02-.02-.01-.05,0-.07,0,0,1.94-1.59,1.94-1.59l.48-.4c.36-.42.94-.71,1.44-.95,5.06.48,10.04,1.49,15.09,2.01-.17,1.66.19,3.5-.18,5.15-3.38.33-7.08,1.47-10.28,1.7-1.62,9.48-1.6,19.32-.87,28.77-5.76.21-11.07-.88-16.55-.19,0-.02-5.53.6-5.5.54h0Z"/><path class="cls-2" d="m14.7,7.12l.27.32c.85-.99,1.73-1.98,2.85-2.63,1.99-1.15,4.43-1.09,6.73-1.16,2.42-.07,4.85-.33,7.26-.1.41.04.83.09,1.18.3.96.55,1.07,1.87,1.05,2.98,0,.54-.01,1.1-.23,1.6-.53,1.23-2.07,1.62-3.4,1.77-1.57.17-3.15.23-4.73.16-.62-.03-1.27-.07-1.84.19-.25.11-.47.28-.73.37-.36.12-.76.08-1.14.03-.97-.12-1.94-.24-2.91-.36-.59-.07-1.19-.15-1.72-.4-1.27-.61-1.88-2.05-2.64-3.07Z"/><path class="cls-1" d="m27.2,16.93c3.83-.84,7.46-2.5,11.32-3.18,1.03-.18,2.17-.27,3.05.29.65.42,1.05,1.14,1.21,1.89s.08,1.54-.07,2.29c-.09.46-.21.92-.49,1.3-.68.95-2.02,1.06-3.19,1.09-3.55.09-7.1.17-10.65.26-.57.01-1.22-.01-1.57-.46-.16-.21-.23-.47-.29-.72-.12-.48-.23-.98-.17-1.48s.29-1.17.84-1.29Z"/></svg>